<?xml version="1.0" encoding="utf-8" standalone="no"?>
<!DOCTYPE svg PUBLIC "-//W3C//DTD SVG 1.1//EN"
  "http://www.w3.org/Graphics/SVG/1.1/DTD/svg11.dtd">
<svg height="295.789687pt" version="1.1" viewBox="0 0 372.103125 295.789687" width="372.103125pt" xmlns="http://www.w3.org/2000/svg" xmlns:xlink="http://www.w3.org/1999/xlink">
 <metadata>
  <rdf:RDF xmlns:cc="http://creativecommons.org/ns#" xmlns:dc="http://purl.org/dc/elements/1.1/" xmlns:rdf="http://www.w3.org/1999/02/22-rdf-syntax-ns#">
   <cc:Work>
    <dc:type rdf:resource="http://purl.org/dc/dcmitype/StillImage"/>
    <dc:date>2021-04-18T19:42:32.333249</dc:date>
    <dc:format>image/svg+xml</dc:format>
    <dc:creator>
     <cc:Agent>
      <dc:title>Matplotlib v3.4.1, https://matplotlib.org/</dc:title>
     </cc:Agent>
    </dc:creator>
   </cc:Work>
  </rdf:RDF>
 </metadata>
 <defs>
  <style type="text/css">*{stroke-linecap:butt;stroke-linejoin:round;}</style>
 </defs>
 <g id="figure_1">
  <g id="patch_1">
   <path d="M 0 295.789687 
L 372.103125 295.789687 
L 372.103125 0 
L 0 0 
z
" style="fill:none;"/>
  </g>
  <g id="axes_1">
   <g id="patch_2">
    <path d="M 30.103125 224.64 
L 364.903125 224.64 
L 364.903125 7.2 
L 30.103125 7.2 
z
" style="fill:#ffffff;"/>
   </g>
   <g id="matplotlib.axis_1">
    <g id="xtick_1">
     <g id="line2d_1">
      <defs>
       <path d="M 0 0 
L 0 3.5 
" id="mb068cd6e77" style="stroke:#000000;stroke-width:0.8;"/>
      </defs>
      <g>
       <use style="stroke:#000000;stroke-width:0.8;" x="30.103125" xlink:href="#mb068cd6e77" y="224.64"/>
      </g>
     </g>
    </g>
    <g id="xtick_2">
     <g id="line2d_2">
      <g>
       <use style="stroke:#000000;stroke-width:0.8;" x="207.965625" xlink:href="#mb068cd6e77" y="224.64"/>
      </g>
     </g>
     <g id="text_1">
      <!--  -->
      <g transform="translate(207.965625 239.238437)scale(0.1 -0.1)"/>
      <!--  -->
      <g transform="translate(207.965625 250.43625)scale(0.1 -0.1)"/>
      <!-- Feb -->
      <g transform="translate(199.114062 261.634062)scale(0.1 -0.1)">
       <defs>
        <path d="M 628 4666 
L 3309 4666 
L 3309 4134 
L 1259 4134 
L 1259 2759 
L 3109 2759 
L 3109 2228 
L 1259 2228 
L 1259 0 
L 628 0 
L 628 4666 
z
" id="DejaVuSans-46" transform="scale(0.015625)"/>
        <path d="M 3597 1894 
L 3597 1613 
L 953 1613 
Q 991 1019 1311 708 
Q 1631 397 2203 397 
Q 2534 397 2845 478 
Q 3156 559 3463 722 
L 3463 178 
Q 3153 47 2828 -22 
Q 2503 -91 2169 -91 
Q 1331 -91 842 396 
Q 353 884 353 1716 
Q 353 2575 817 3079 
Q 1281 3584 2069 3584 
Q 2775 3584 3186 3129 
Q 3597 2675 3597 1894 
z
M 3022 2063 
Q 3016 2534 2758 2815 
Q 2500 3097 2075 3097 
Q 1594 3097 1305 2825 
Q 1016 2553 972 2059 
L 3022 2063 
z
" id="DejaVuSans-65" transform="scale(0.015625)"/>
        <path d="M 3116 1747 
Q 3116 2381 2855 2742 
Q 2594 3103 2138 3103 
Q 1681 3103 1420 2742 
Q 1159 2381 1159 1747 
Q 1159 1113 1420 752 
Q 1681 391 2138 391 
Q 2594 391 2855 752 
Q 3116 1113 3116 1747 
z
M 1159 2969 
Q 1341 3281 1617 3432 
Q 1894 3584 2278 3584 
Q 2916 3584 3314 3078 
Q 3713 2572 3713 1747 
Q 3713 922 3314 415 
Q 2916 -91 2278 -91 
Q 1894 -91 1617 61 
Q 1341 213 1159 525 
L 1159 0 
L 581 0 
L 581 4863 
L 1159 4863 
L 1159 2969 
z
" id="DejaVuSans-62" transform="scale(0.015625)"/>
       </defs>
       <use xlink:href="#DejaVuSans-46"/>
       <use x="52.019531" xlink:href="#DejaVuSans-65"/>
       <use x="113.542969" xlink:href="#DejaVuSans-62"/>
      </g>
      <!-- 2019 -->
      <g transform="translate(195.240625 272.831875)scale(0.1 -0.1)">
       <defs>
        <path d="M 1228 531 
L 3431 531 
L 3431 0 
L 469 0 
L 469 531 
Q 828 903 1448 1529 
Q 2069 2156 2228 2338 
Q 2531 2678 2651 2914 
Q 2772 3150 2772 3378 
Q 2772 3750 2511 3984 
Q 2250 4219 1831 4219 
Q 1534 4219 1204 4116 
Q 875 4013 500 3803 
L 500 4441 
Q 881 4594 1212 4672 
Q 1544 4750 1819 4750 
Q 2544 4750 2975 4387 
Q 3406 4025 3406 3419 
Q 3406 3131 3298 2873 
Q 3191 2616 2906 2266 
Q 2828 2175 2409 1742 
Q 1991 1309 1228 531 
z
" id="DejaVuSans-32" transform="scale(0.015625)"/>
        <path d="M 2034 4250 
Q 1547 4250 1301 3770 
Q 1056 3291 1056 2328 
Q 1056 1369 1301 889 
Q 1547 409 2034 409 
Q 2525 409 2770 889 
Q 3016 1369 3016 2328 
Q 3016 3291 2770 3770 
Q 2525 4250 2034 4250 
z
M 2034 4750 
Q 2819 4750 3233 4129 
Q 3647 3509 3647 2328 
Q 3647 1150 3233 529 
Q 2819 -91 2034 -91 
Q 1250 -91 836 529 
Q 422 1150 422 2328 
Q 422 3509 836 4129 
Q 1250 4750 2034 4750 
z
" id="DejaVuSans-30" transform="scale(0.015625)"/>
        <path d="M 794 531 
L 1825 531 
L 1825 4091 
L 703 3866 
L 703 4441 
L 1819 4666 
L 2450 4666 
L 2450 531 
L 3481 531 
L 3481 0 
L 794 0 
L 794 531 
z
" id="DejaVuSans-31" transform="scale(0.015625)"/>
        <path d="M 703 97 
L 703 672 
Q 941 559 1184 500 
Q 1428 441 1663 441 
Q 2288 441 2617 861 
Q 2947 1281 2994 2138 
Q 2813 1869 2534 1725 
Q 2256 1581 1919 1581 
Q 1219 1581 811 2004 
Q 403 2428 403 3163 
Q 403 3881 828 4315 
Q 1253 4750 1959 4750 
Q 2769 4750 3195 4129 
Q 3622 3509 3622 2328 
Q 3622 1225 3098 567 
Q 2575 -91 1691 -91 
Q 1453 -91 1209 -44 
Q 966 3 703 97 
z
M 1959 2075 
Q 2384 2075 2632 2365 
Q 2881 2656 2881 3163 
Q 2881 3666 2632 3958 
Q 2384 4250 1959 4250 
Q 1534 4250 1286 3958 
Q 1038 3666 1038 3163 
Q 1038 2656 1286 2365 
Q 1534 2075 1959 2075 
z
" id="DejaVuSans-39" transform="scale(0.015625)"/>
       </defs>
       <use xlink:href="#DejaVuSans-32"/>
       <use x="63.623047" xlink:href="#DejaVuSans-30"/>
       <use x="127.246094" xlink:href="#DejaVuSans-31"/>
       <use x="190.869141" xlink:href="#DejaVuSans-39"/>
      </g>
     </g>
    </g>
    <g id="xtick_3">
     <g id="line2d_3">
      <g>
       <use style="stroke:#000000;stroke-width:0.8;" x="364.903125" xlink:href="#mb068cd6e77" y="224.64"/>
      </g>
     </g>
    </g>
    <g id="xtick_4">
     <g id="line2d_4">
      <defs>
       <path d="M 0 0 
L 0 2 
" id="mdb036e7749" style="stroke:#000000;stroke-width:0.6;"/>
      </defs>
      <g>
       <use style="stroke:#000000;stroke-width:0.6;" x="40.565625" xlink:href="#mdb036e7749" y="224.64"/>
      </g>
     </g>
    </g>
    <g id="xtick_5">
     <g id="line2d_5">
      <g>
       <use style="stroke:#000000;stroke-width:0.6;" x="51.028125" xlink:href="#mdb036e7749" y="224.64"/>
      </g>
     </g>
    </g>
    <g id="xtick_6">
     <g id="line2d_6">
      <g>
       <use style="stroke:#000000;stroke-width:0.6;" x="61.490625" xlink:href="#mdb036e7749" y="224.64"/>
      </g>
     </g>
    </g>
    <g id="xtick_7">
     <g id="line2d_7">
      <g>
       <use style="stroke:#000000;stroke-width:0.6;" x="71.953125" xlink:href="#mdb036e7749" y="224.64"/>
      </g>
     </g>
    </g>
    <g id="xtick_8">
     <g id="line2d_8">
      <g>
       <use style="stroke:#000000;stroke-width:0.6;" x="82.415625" xlink:href="#mdb036e7749" y="224.64"/>
      </g>
     </g>
    </g>
    <g id="xtick_9">
     <g id="line2d_9">
      <g>
       <use style="stroke:#000000;stroke-width:0.6;" x="92.878125" xlink:href="#mdb036e7749" y="224.64"/>
      </g>
     </g>
     <g id="text_2">
      <!-- 21 -->
      <g transform="translate(86.515625 237.638437)scale(0.1 -0.1)">
       <use xlink:href="#DejaVuSans-32"/>
       <use x="63.623047" xlink:href="#DejaVuSans-31"/>
      </g>
     </g>
    </g>
    <g id="xtick_10">
     <g id="line2d_10">
      <g>
       <use style="stroke:#000000;stroke-width:0.6;" x="103.340625" xlink:href="#mdb036e7749" y="224.64"/>
      </g>
     </g>
    </g>
    <g id="xtick_11">
     <g id="line2d_11">
      <g>
       <use style="stroke:#000000;stroke-width:0.6;" x="113.803125" xlink:href="#mdb036e7749" y="224.64"/>
      </g>
     </g>
    </g>
    <g id="xtick_12">
     <g id="line2d_12">
      <g>
       <use style="stroke:#000000;stroke-width:0.6;" x="124.265625" xlink:href="#mdb036e7749" y="224.64"/>
      </g>
     </g>
    </g>
    <g id="xtick_13">
     <g id="line2d_13">
      <g>
       <use style="stroke:#000000;stroke-width:0.6;" x="134.728125" xlink:href="#mdb036e7749" y="224.64"/>
      </g>
     </g>
    </g>
    <g id="xtick_14">
     <g id="line2d_14">
      <g>
       <use style="stroke:#000000;stroke-width:0.6;" x="145.190625" xlink:href="#mdb036e7749" y="224.64"/>
      </g>
     </g>
    </g>
    <g id="xtick_15">
     <g id="line2d_15">
      <g>
       <use style="stroke:#000000;stroke-width:0.6;" x="155.653125" xlink:href="#mdb036e7749" y="224.64"/>
      </g>
     </g>
    </g>
    <g id="xtick_16">
     <g id="line2d_16">
      <g>
       <use style="stroke:#000000;stroke-width:0.6;" x="166.115625" xlink:href="#mdb036e7749" y="224.64"/>
      </g>
     </g>
     <g id="text_3">
      <!-- 28 -->
      <g transform="translate(159.753125 237.638437)scale(0.1 -0.1)">
       <defs>
        <path d="M 2034 2216 
Q 1584 2216 1326 1975 
Q 1069 1734 1069 1313 
Q 1069 891 1326 650 
Q 1584 409 2034 409 
Q 2484 409 2743 651 
Q 3003 894 3003 1313 
Q 3003 1734 2745 1975 
Q 2488 2216 2034 2216 
z
M 1403 2484 
Q 997 2584 770 2862 
Q 544 3141 544 3541 
Q 544 4100 942 4425 
Q 1341 4750 2034 4750 
Q 2731 4750 3128 4425 
Q 3525 4100 3525 3541 
Q 3525 3141 3298 2862 
Q 3072 2584 2669 2484 
Q 3125 2378 3379 2068 
Q 3634 1759 3634 1313 
Q 3634 634 3220 271 
Q 2806 -91 2034 -91 
Q 1263 -91 848 271 
Q 434 634 434 1313 
Q 434 1759 690 2068 
Q 947 2378 1403 2484 
z
M 1172 3481 
Q 1172 3119 1398 2916 
Q 1625 2713 2034 2713 
Q 2441 2713 2670 2916 
Q 2900 3119 2900 3481 
Q 2900 3844 2670 4047 
Q 2441 4250 2034 4250 
Q 1625 4250 1398 4047 
Q 1172 3844 1172 3481 
z
" id="DejaVuSans-38" transform="scale(0.015625)"/>
       </defs>
       <use xlink:href="#DejaVuSans-32"/>
       <use x="63.623047" xlink:href="#DejaVuSans-38"/>
      </g>
     </g>
    </g>
    <g id="xtick_17">
     <g id="line2d_17">
      <g>
       <use style="stroke:#000000;stroke-width:0.6;" x="176.578125" xlink:href="#mdb036e7749" y="224.64"/>
      </g>
     </g>
    </g>
    <g id="xtick_18">
     <g id="line2d_18">
      <g>
       <use style="stroke:#000000;stroke-width:0.6;" x="187.040625" xlink:href="#mdb036e7749" y="224.64"/>
      </g>
     </g>
    </g>
    <g id="xtick_19">
     <g id="line2d_19">
      <g>
       <use style="stroke:#000000;stroke-width:0.6;" x="197.503125" xlink:href="#mdb036e7749" y="224.64"/>
      </g>
     </g>
    </g>
    <g id="xtick_20">
     <g id="line2d_20">
      <g>
       <use style="stroke:#000000;stroke-width:0.6;" x="218.428125" xlink:href="#mdb036e7749" y="224.64"/>
      </g>
     </g>
    </g>
    <g id="xtick_21">
     <g id="line2d_21">
      <g>
       <use style="stroke:#000000;stroke-width:0.6;" x="228.890625" xlink:href="#mdb036e7749" y="224.64"/>
      </g>
     </g>
    </g>
    <g id="xtick_22">
     <g id="line2d_22">
      <g>
       <use style="stroke:#000000;stroke-width:0.6;" x="239.353125" xlink:href="#mdb036e7749" y="224.64"/>
      </g>
     </g>
     <g id="text_4">
      <!-- 04 -->
      <g transform="translate(232.990625 237.638437)scale(0.1 -0.1)">
       <defs>
        <path d="M 2419 4116 
L 825 1625 
L 2419 1625 
L 2419 4116 
z
M 2253 4666 
L 3047 4666 
L 3047 1625 
L 3713 1625 
L 3713 1100 
L 3047 1100 
L 3047 0 
L 2419 0 
L 2419 1100 
L 313 1100 
L 313 1709 
L 2253 4666 
z
" id="DejaVuSans-34" transform="scale(0.015625)"/>
       </defs>
       <use xlink:href="#DejaVuSans-30"/>
       <use x="63.623047" xlink:href="#DejaVuSans-34"/>
      </g>
     </g>
    </g>
    <g id="xtick_23">
     <g id="line2d_23">
      <g>
       <use style="stroke:#000000;stroke-width:0.6;" x="249.815625" xlink:href="#mdb036e7749" y="224.64"/>
      </g>
     </g>
    </g>
    <g id="xtick_24">
     <g id="line2d_24">
      <g>
       <use style="stroke:#000000;stroke-width:0.6;" x="260.278125" xlink:href="#mdb036e7749" y="224.64"/>
      </g>
     </g>
    </g>
    <g id="xtick_25">
     <g id="line2d_25">
      <g>
       <use style="stroke:#000000;stroke-width:0.6;" x="270.740625" xlink:href="#mdb036e7749" y="224.64"/>
      </g>
     </g>
    </g>
    <g id="xtick_26">
     <g id="line2d_26">
      <g>
       <use style="stroke:#000000;stroke-width:0.6;" x="281.203125" xlink:href="#mdb036e7749" y="224.64"/>
      </g>
     </g>
    </g>
    <g id="xtick_27">
     <g id="line2d_27">
      <g>
       <use style="stroke:#000000;stroke-width:0.6;" x="291.665625" xlink:href="#mdb036e7749" y="224.64"/>
      </g>
     </g>
    </g>
    <g id="xtick_28">
     <g id="line2d_28">
      <g>
       <use style="stroke:#000000;stroke-width:0.6;" x="302.128125" xlink:href="#mdb036e7749" y="224.64"/>
      </g>
     </g>
    </g>
    <g id="xtick_29">
     <g id="line2d_29">
      <g>
       <use style="stroke:#000000;stroke-width:0.6;" x="312.590625" xlink:href="#mdb036e7749" y="224.64"/>
      </g>
     </g>
     <g id="text_5">
      <!-- 11 -->
      <g transform="translate(306.228125 237.638437)scale(0.1 -0.1)">
       <use xlink:href="#DejaVuSans-31"/>
       <use x="63.623047" xlink:href="#DejaVuSans-31"/>
      </g>
     </g>
    </g>
    <g id="xtick_30">
     <g id="line2d_30">
      <g>
       <use style="stroke:#000000;stroke-width:0.6;" x="323.053125" xlink:href="#mdb036e7749" y="224.64"/>
      </g>
     </g>
    </g>
    <g id="xtick_31">
     <g id="line2d_31">
      <g>
       <use style="stroke:#000000;stroke-width:0.6;" x="333.515625" xlink:href="#mdb036e7749" y="224.64"/>
      </g>
     </g>
    </g>
    <g id="xtick_32">
     <g id="line2d_32">
      <g>
       <use style="stroke:#000000;stroke-width:0.6;" x="343.978125" xlink:href="#mdb036e7749" y="224.64"/>
      </g>
     </g>
    </g>
    <g id="xtick_33">
     <g id="line2d_33">
      <g>
       <use style="stroke:#000000;stroke-width:0.6;" x="354.440625" xlink:href="#mdb036e7749" y="224.64"/>
      </g>
     </g>
    </g>
    <g id="text_6">
     <!-- From Date -->
     <g transform="translate(171.577344 286.51)scale(0.1 -0.1)">
      <defs>
       <path d="M 2631 2963 
Q 2534 3019 2420 3045 
Q 2306 3072 2169 3072 
Q 1681 3072 1420 2755 
Q 1159 2438 1159 1844 
L 1159 0 
L 581 0 
L 581 3500 
L 1159 3500 
L 1159 2956 
Q 1341 3275 1631 3429 
Q 1922 3584 2338 3584 
Q 2397 3584 2469 3576 
Q 2541 3569 2628 3553 
L 2631 2963 
z
" id="DejaVuSans-72" transform="scale(0.015625)"/>
       <path d="M 1959 3097 
Q 1497 3097 1228 2736 
Q 959 2375 959 1747 
Q 959 1119 1226 758 
Q 1494 397 1959 397 
Q 2419 397 2687 759 
Q 2956 1122 2956 1747 
Q 2956 2369 2687 2733 
Q 2419 3097 1959 3097 
z
M 1959 3584 
Q 2709 3584 3137 3096 
Q 3566 2609 3566 1747 
Q 3566 888 3137 398 
Q 2709 -91 1959 -91 
Q 1206 -91 779 398 
Q 353 888 353 1747 
Q 353 2609 779 3096 
Q 1206 3584 1959 3584 
z
" id="DejaVuSans-6f" transform="scale(0.015625)"/>
       <path d="M 3328 2828 
Q 3544 3216 3844 3400 
Q 4144 3584 4550 3584 
Q 5097 3584 5394 3201 
Q 5691 2819 5691 2113 
L 5691 0 
L 5113 0 
L 5113 2094 
Q 5113 2597 4934 2840 
Q 4756 3084 4391 3084 
Q 3944 3084 3684 2787 
Q 3425 2491 3425 1978 
L 3425 0 
L 2847 0 
L 2847 2094 
Q 2847 2600 2669 2842 
Q 2491 3084 2119 3084 
Q 1678 3084 1418 2786 
Q 1159 2488 1159 1978 
L 1159 0 
L 581 0 
L 581 3500 
L 1159 3500 
L 1159 2956 
Q 1356 3278 1631 3431 
Q 1906 3584 2284 3584 
Q 2666 3584 2933 3390 
Q 3200 3197 3328 2828 
z
" id="DejaVuSans-6d" transform="scale(0.015625)"/>
       <path id="DejaVuSans-20" transform="scale(0.015625)"/>
       <path d="M 1259 4147 
L 1259 519 
L 2022 519 
Q 2988 519 3436 956 
Q 3884 1394 3884 2338 
Q 3884 3275 3436 3711 
Q 2988 4147 2022 4147 
L 1259 4147 
z
M 628 4666 
L 1925 4666 
Q 3281 4666 3915 4102 
Q 4550 3538 4550 2338 
Q 4550 1131 3912 565 
Q 3275 0 1925 0 
L 628 0 
L 628 4666 
z
" id="DejaVuSans-44" transform="scale(0.015625)"/>
       <path d="M 2194 1759 
Q 1497 1759 1228 1600 
Q 959 1441 959 1056 
Q 959 750 1161 570 
Q 1363 391 1709 391 
Q 2188 391 2477 730 
Q 2766 1069 2766 1631 
L 2766 1759 
L 2194 1759 
z
M 3341 1997 
L 3341 0 
L 2766 0 
L 2766 531 
Q 2569 213 2275 61 
Q 1981 -91 1556 -91 
Q 1019 -91 701 211 
Q 384 513 384 1019 
Q 384 1609 779 1909 
Q 1175 2209 1959 2209 
L 2766 2209 
L 2766 2266 
Q 2766 2663 2505 2880 
Q 2244 3097 1772 3097 
Q 1472 3097 1187 3025 
Q 903 2953 641 2809 
L 641 3341 
Q 956 3463 1253 3523 
Q 1550 3584 1831 3584 
Q 2591 3584 2966 3190 
Q 3341 2797 3341 1997 
z
" id="DejaVuSans-61" transform="scale(0.015625)"/>
       <path d="M 1172 4494 
L 1172 3500 
L 2356 3500 
L 2356 3053 
L 1172 3053 
L 1172 1153 
Q 1172 725 1289 603 
Q 1406 481 1766 481 
L 2356 481 
L 2356 0 
L 1766 0 
Q 1100 0 847 248 
Q 594 497 594 1153 
L 594 3053 
L 172 3053 
L 172 3500 
L 594 3500 
L 594 4494 
L 1172 4494 
z
" id="DejaVuSans-74" transform="scale(0.015625)"/>
      </defs>
      <use xlink:href="#DejaVuSans-46"/>
      <use x="50.269531" xlink:href="#DejaVuSans-72"/>
      <use x="89.132812" xlink:href="#DejaVuSans-6f"/>
      <use x="150.314453" xlink:href="#DejaVuSans-6d"/>
      <use x="247.726562" xlink:href="#DejaVuSans-20"/>
      <use x="279.513672" xlink:href="#DejaVuSans-44"/>
      <use x="356.515625" xlink:href="#DejaVuSans-61"/>
      <use x="417.794922" xlink:href="#DejaVuSans-74"/>
      <use x="457.003906" xlink:href="#DejaVuSans-65"/>
     </g>
    </g>
   </g>
   <g id="matplotlib.axis_2">
    <g id="ytick_1">
     <g id="line2d_34">
      <defs>
       <path d="M 0 0 
L -3.5 0 
" id="maafff04145" style="stroke:#000000;stroke-width:0.8;"/>
      </defs>
      <g>
       <use style="stroke:#000000;stroke-width:0.8;" x="30.103125" xlink:href="#maafff04145" y="214.756364"/>
      </g>
     </g>
     <g id="text_7">
      <!-- 0.0 -->
      <g transform="translate(7.2 218.555582)scale(0.1 -0.1)">
       <defs>
        <path d="M 684 794 
L 1344 794 
L 1344 0 
L 684 0 
L 684 794 
z
" id="DejaVuSans-2e" transform="scale(0.015625)"/>
       </defs>
       <use xlink:href="#DejaVuSans-30"/>
       <use x="63.623047" xlink:href="#DejaVuSans-2e"/>
       <use x="95.410156" xlink:href="#DejaVuSans-30"/>
      </g>
     </g>
    </g>
    <g id="ytick_2">
     <g id="line2d_35">
      <g>
       <use style="stroke:#000000;stroke-width:0.8;" x="30.103125" xlink:href="#maafff04145" y="175.221818"/>
      </g>
     </g>
     <g id="text_8">
      <!-- 0.2 -->
      <g transform="translate(7.2 179.021037)scale(0.1 -0.1)">
       <use xlink:href="#DejaVuSans-30"/>
       <use x="63.623047" xlink:href="#DejaVuSans-2e"/>
       <use x="95.410156" xlink:href="#DejaVuSans-32"/>
      </g>
     </g>
    </g>
    <g id="ytick_3">
     <g id="line2d_36">
      <g>
       <use style="stroke:#000000;stroke-width:0.8;" x="30.103125" xlink:href="#maafff04145" y="135.687273"/>
      </g>
     </g>
     <g id="text_9">
      <!-- 0.4 -->
      <g transform="translate(7.2 139.486491)scale(0.1 -0.1)">
       <use xlink:href="#DejaVuSans-30"/>
       <use x="63.623047" xlink:href="#DejaVuSans-2e"/>
       <use x="95.410156" xlink:href="#DejaVuSans-34"/>
      </g>
     </g>
    </g>
    <g id="ytick_4">
     <g id="line2d_37">
      <g>
       <use style="stroke:#000000;stroke-width:0.8;" x="30.103125" xlink:href="#maafff04145" y="96.152727"/>
      </g>
     </g>
     <g id="text_10">
      <!-- 0.6 -->
      <g transform="translate(7.2 99.951946)scale(0.1 -0.1)">
       <defs>
        <path d="M 2113 2584 
Q 1688 2584 1439 2293 
Q 1191 2003 1191 1497 
Q 1191 994 1439 701 
Q 1688 409 2113 409 
Q 2538 409 2786 701 
Q 3034 994 3034 1497 
Q 3034 2003 2786 2293 
Q 2538 2584 2113 2584 
z
M 3366 4563 
L 3366 3988 
Q 3128 4100 2886 4159 
Q 2644 4219 2406 4219 
Q 1781 4219 1451 3797 
Q 1122 3375 1075 2522 
Q 1259 2794 1537 2939 
Q 1816 3084 2150 3084 
Q 2853 3084 3261 2657 
Q 3669 2231 3669 1497 
Q 3669 778 3244 343 
Q 2819 -91 2113 -91 
Q 1303 -91 875 529 
Q 447 1150 447 2328 
Q 447 3434 972 4092 
Q 1497 4750 2381 4750 
Q 2619 4750 2861 4703 
Q 3103 4656 3366 4563 
z
" id="DejaVuSans-36" transform="scale(0.015625)"/>
       </defs>
       <use xlink:href="#DejaVuSans-30"/>
       <use x="63.623047" xlink:href="#DejaVuSans-2e"/>
       <use x="95.410156" xlink:href="#DejaVuSans-36"/>
      </g>
     </g>
    </g>
    <g id="ytick_5">
     <g id="line2d_38">
      <g>
       <use style="stroke:#000000;stroke-width:0.8;" x="30.103125" xlink:href="#maafff04145" y="56.618182"/>
      </g>
     </g>
     <g id="text_11">
      <!-- 0.8 -->
      <g transform="translate(7.2 60.417401)scale(0.1 -0.1)">
       <use xlink:href="#DejaVuSans-30"/>
       <use x="63.623047" xlink:href="#DejaVuSans-2e"/>
       <use x="95.410156" xlink:href="#DejaVuSans-38"/>
      </g>
     </g>
    </g>
    <g id="ytick_6">
     <g id="line2d_39">
      <g>
       <use style="stroke:#000000;stroke-width:0.8;" x="30.103125" xlink:href="#maafff04145" y="17.083636"/>
      </g>
     </g>
     <g id="text_12">
      <!-- 1.0 -->
      <g transform="translate(7.2 20.882855)scale(0.1 -0.1)">
       <use xlink:href="#DejaVuSans-31"/>
       <use x="63.623047" xlink:href="#DejaVuSans-2e"/>
       <use x="95.410156" xlink:href="#DejaVuSans-30"/>
      </g>
     </g>
    </g>
   </g>
   <g id="line2d_40">
    <path clip-path="url(#pee4983612f)" d="M 29.994141 182.867276 
L 30.321094 182.867276 
L 30.539062 179.103968 
L 30.757031 179.103968 
L 30.975 180.094312 
L 31.192969 180.094312 
L 31.410937 169.596662 
L 31.628906 169.596662 
L 31.846875 162.466183 
L 32.064844 162.466183 
L 32.282812 166.625629 
L 32.500781 166.625629 
L 32.71875 169.200525 
L 32.936719 169.200525 
L 33.154688 168.606318 
L 33.372656 168.606318 
L 33.590625 131.369371 
L 33.808594 131.369371 
L 34.026562 120.475584 
L 34.244531 120.475584 
L 34.4625 160.287426 
L 34.680469 160.287426 
L 34.898438 166.625629 
L 35.116406 166.625629 
L 35.334375 170.983144 
L 35.552344 170.983144 
L 35.770312 174.746453 
L 35.988281 174.746453 
L 36.20625 176.92521 
L 36.424219 176.92521 
L 36.642187 174.746453 
L 36.860156 174.746453 
L 37.078125 184.451827 
L 37.296094 184.451827 
L 37.514063 177.915555 
L 37.732031 177.915555 
L 37.95 158.900944 
L 38.167969 158.900944 
L 38.385937 144.639985 
L 38.603906 144.639985 
L 38.821875 113.345105 
L 39.039844 113.345105 
L 39.257812 83.436706 
L 39.475781 83.436706 
L 39.69375 76.306227 
L 39.911719 76.306227 
L 40.129687 66.798921 
L 40.347656 66.798921 
L 40.565625 109.581796 
L 40.783594 109.581796 
L 41.001562 110.77021 
L 41.219531 110.77021 
L 41.4375 109.383727 
L 41.655469 109.383727 
L 41.873438 119.48524 
L 42.091406 119.48524 
L 42.309375 122.85241 
L 42.527344 122.85241 
L 42.745312 125.427306 
L 42.963281 125.427306 
L 43.18125 119.48524 
L 43.399219 119.48524 
L 43.617188 140.084402 
L 43.835156 140.084402 
L 44.053125 130.973234 
L 44.271094 130.973234 
L 44.489062 58.480029 
L 44.707031 58.480029 
L 44.925 92.349805 
L 45.142969 92.349805 
L 45.360937 112.156692 
L 45.578906 112.156692 
L 45.796875 133.746198 
L 46.014844 133.746198 
L 46.232813 126.41765 
L 46.450781 126.41765 
L 46.66875 130.577096 
L 46.886719 130.577096 
L 47.104687 115.325793 
L 47.322656 115.325793 
L 47.540625 127.606063 
L 47.758594 127.606063 
L 47.976562 124.436961 
L 48.194531 124.436961 
L 48.4125 87.596152 
L 48.630469 87.596152 
L 48.848437 64.818233 
L 49.066406 64.818233 
L 49.284375 94.528563 
L 49.502344 94.528563 
L 49.720312 91.55753 
L 49.938281 91.55753 
L 50.15625 87.200015 
L 50.374219 87.200015 
L 50.592188 76.108158 
L 50.810156 76.108158 
L 51.028125 75.117814 
L 51.246094 75.117814 
L 51.464062 116.118069 
L 51.682031 116.118069 
L 51.9 100.866766 
L 52.117969 100.866766 
L 52.335938 125.229237 
L 52.553906 125.229237 
L 52.771875 100.668697 
L 52.989844 100.668697 
L 53.207812 104.035868 
L 53.425781 104.035868 
L 53.64375 90.171048 
L 53.861719 90.171048 
L 54.079687 76.900434 
L 54.297656 76.900434 
L 54.515625 53.330239 
L 54.733594 53.330239 
L 55.3875 17.677843 
L 55.605469 17.677843 
L 55.823437 34.711765 
L 56.041406 34.711765 
L 56.259375 91.953667 
L 56.477344 91.953667 
L 56.695312 128.20027 
L 56.913281 128.20027 
L 57.13125 118.891033 
L 57.349219 118.891033 
L 57.567187 116.712275 
L 57.785156 116.712275 
L 58.003125 132.359716 
L 58.221094 132.359716 
L 58.439062 143.055435 
L 58.657031 143.055435 
L 58.875 100.27256 
L 59.092969 100.27256 
L 59.746875 85.417395 
L 59.964844 85.417395 
L 60.182812 82.248293 
L 60.400781 82.248293 
L 60.61875 44.021002 
L 60.836719 44.021002 
L 61.054688 96.509251 
L 61.272656 96.509251 
L 61.381641 134.399825 
L 61.599609 130.735551 
L 61.708594 130.953427 
L 61.926562 132.934116 
L 62.253516 130.35922 
L 62.3625 130.715744 
L 62.471484 130.279993 
L 62.689453 132.359716 
L 62.798437 132.022999 
L 62.907422 130.973234 
L 63.016406 145.967047 
L 63.234375 130.894006 
L 63.452344 126.615719 
L 63.561328 128.319111 
L 63.670313 127.922973 
L 64.10625 112.671671 
L 64.324219 106.94748 
L 64.433203 106.392888 
L 64.542187 106.88806 
L 64.760156 106.432501 
L 64.869141 106.650377 
L 65.741016 127.150505 
L 65.85 127.62587 
L 66.067969 133.98388 
L 66.394922 141.43127 
L 66.503906 141.74818 
L 66.721875 148.106191 
L 66.939844 142.916786 
L 67.157812 144.065586 
L 67.266797 144.580565 
L 67.484766 147.373336 
L 67.702734 145.412454 
L 67.811719 145.887819 
L 67.920703 145.709557 
L 68.138672 145.05593 
L 68.247656 147.115846 
L 68.465625 163.852665 
L 68.683594 163.852665 
L 68.901562 161.27777 
L 69.119531 161.27777 
L 69.3375 142.461228 
L 69.555469 142.461228 
L 69.773438 70.760299 
L 69.991406 70.760299 
L 70.209375 66.402784 
L 70.427344 66.402784 
L 70.645312 58.678098 
L 70.863281 58.678098 
L 71.08125 57.489685 
L 71.299219 57.489685 
L 71.517187 82.8425 
L 71.735156 82.8425 
L 71.953125 93.340149 
L 72.171094 93.340149 
L 72.389063 119.287171 
L 72.607031 119.287171 
L 72.825 122.85241 
L 73.042969 122.85241 
L 73.260937 139.688264 
L 73.478906 139.688264 
L 73.696875 136.717231 
L 73.914844 136.717231 
L 74.132812 125.427306 
L 74.350781 125.427306 
L 74.56875 139.292126 
L 74.786719 139.292126 
L 75.004687 157.118324 
L 75.222656 157.118324 
L 75.440625 132.557785 
L 75.658594 132.557785 
L 75.876562 131.765509 
L 76.094531 131.765509 
L 76.3125 134.736542 
L 76.530469 134.736542 
L 76.748438 139.688264 
L 76.966406 139.688264 
L 77.184375 152.56274 
L 77.402344 152.56274 
L 77.620312 131.963578 
L 77.838281 131.963578 
L 78.05625 163.654596 
L 78.274219 163.654596 
L 78.492188 178.311692 
L 79.146094 178.311692 
L 79.364062 168.606318 
L 79.582031 168.606318 
L 82.851562 69.175748 
L 83.069531 69.175748 
L 83.2875 86.407739 
L 83.505469 86.407739 
L 83.723437 105.620419 
L 83.941406 105.620419 
L 84.159375 114.929656 
L 84.377344 114.929656 
L 84.595312 124.833099 
L 84.813281 124.833099 
L 85.03125 129.388683 
L 85.249219 129.388683 
L 85.467188 119.881377 
L 85.685156 119.881377 
L 85.903125 69.175748 
L 86.121094 69.175748 
L 86.339062 43.228727 
L 86.557031 43.228727 
L 86.775 89.77491 
L 86.992969 89.77491 
L 87.210938 48.378517 
L 87.428906 48.378517 
L 87.646875 145.63033 
L 87.864844 145.63033 
L 88.082812 140.678608 
L 88.300781 140.678608 
L 88.51875 152.56274 
L 88.736719 152.56274 
L 88.954687 173.161902 
L 89.172656 173.161902 
L 89.390625 182.27307 
L 89.608594 182.27307 
L 89.826563 88.190359 
L 90.044531 88.190359 
L 92.442187 74.325538 
L 92.660156 74.325538 
L 92.878125 136.123024 
L 93.096094 136.123024 
L 93.314062 146.224536 
L 93.532031 146.224536 
L 93.75 140.480539 
L 93.967969 140.480539 
L 94.185938 149.393638 
L 94.403906 149.393638 
L 94.621875 149.195569 
L 94.839844 149.195569 
L 95.057812 154.939566 
L 95.275781 154.939566 
L 95.49375 153.949222 
L 95.711719 153.949222 
L 95.929688 150.383983 
L 96.147656 150.383983 
L 96.365625 137.905644 
L 96.583594 137.905644 
L 96.801562 127.606063 
L 97.019531 127.606063 
L 97.2375 118.296826 
L 97.455469 118.296826 
L 97.673437 137.113369 
L 97.891406 137.113369 
L 98.109375 125.031168 
L 98.327344 125.031168 
L 98.545313 142.857366 
L 98.763281 142.857366 
L 98.98125 152.364671 
L 99.199219 152.364671 
L 99.417187 176.331004 
L 99.635156 176.331004 
L 99.853125 188.611273 
L 100.071094 188.611273 
L 100.289062 185.64024 
L 100.507031 185.64024 
L 100.725 194.157202 
L 100.942969 194.157202 
L 101.160937 190.9881 
L 101.378906 190.9881 
L 101.596875 195.147546 
L 101.814844 195.147546 
L 102.032812 191.780375 
L 102.250781 191.780375 
L 102.46875 194.751408 
L 102.686719 194.751408 
L 102.904688 199.70313 
L 103.122656 199.70313 
L 103.340625 200.495405 
L 103.558594 200.495405 
L 103.776562 199.901199 
L 103.994531 199.901199 
L 104.2125 199.70313 
L 104.430469 199.70313 
L 104.648438 202.476094 
L 104.866406 202.476094 
L 105.084375 209.012367 
L 105.302344 209.012367 
L 105.520312 210.398849 
L 105.738281 210.398849 
L 105.95625 211.389193 
L 106.174219 211.389193 
L 106.392187 210.20078 
L 106.610156 210.20078 
L 106.828125 205.843265 
L 107.046094 205.843265 
L 107.264063 202.476094 
L 107.482031 202.476094 
L 107.7 202.872232 
L 107.917969 202.872232 
L 108.135937 203.664507 
L 108.353906 203.664507 
L 108.571875 203.070301 
L 108.789844 203.070301 
L 109.007812 194.355271 
L 109.225781 194.355271 
L 109.44375 187.620929 
L 109.661719 187.620929 
L 109.879687 190.9881 
L 110.097656 190.9881 
L 110.315625 191.582306 
L 110.533594 191.582306 
L 110.751562 190.393893 
L 110.969531 190.393893 
L 111.1875 187.224791 
L 111.405469 187.224791 
L 111.623438 186.432516 
L 111.841406 186.432516 
L 112.059375 189.601618 
L 112.277344 189.601618 
L 112.495312 195.147546 
L 112.713281 195.147546 
L 112.93125 192.968788 
L 113.149219 192.968788 
L 113.367188 193.959133 
L 113.585156 193.959133 
L 113.803125 201.683819 
L 114.021094 201.683819 
L 114.239062 194.949477 
L 114.457031 194.949477 
L 114.675 193.364926 
L 114.892969 193.364926 
L 115.110937 192.77072 
L 115.328906 192.77072 
L 115.546875 191.582306 
L 115.764844 191.582306 
L 115.982813 190.393893 
L 116.200781 190.393893 
L 116.41875 189.601618 
L 116.636719 189.601618 
L 116.854687 189.997756 
L 117.072656 189.997756 
L 117.290625 174.152246 
L 117.508594 174.152246 
L 117.726562 176.92521 
L 117.944531 176.92521 
L 118.1625 180.886588 
L 118.380469 180.886588 
L 118.598437 174.350315 
L 118.816406 174.350315 
L 119.034375 148.9975 
L 119.252344 148.9975 
L 119.470312 149.195569 
L 119.688281 149.195569 
L 119.90625 160.089357 
L 120.124219 160.089357 
L 120.342188 159.099013 
L 120.560156 159.099013 
L 120.778125 161.079701 
L 120.996094 161.079701 
L 121.214062 161.27777 
L 121.432031 161.27777 
L 121.65 143.84771 
L 121.867969 143.84771 
L 122.085938 123.644686 
L 122.303906 123.644686 
L 122.521875 139.292126 
L 122.739844 139.292126 
L 122.957812 124.436961 
L 123.175781 124.436961 
L 123.39375 111.760554 
L 123.611719 111.760554 
L 123.829687 85.813533 
L 124.047656 85.813533 
L 124.265625 110.968278 
L 124.483594 110.968278 
L 124.701563 91.953667 
L 124.919531 91.953667 
L 125.1375 120.673653 
L 125.355469 120.673653 
L 125.573437 146.026467 
L 125.791406 146.026467 
L 126.009375 166.427561 
L 126.227344 166.427561 
L 126.445312 163.06039 
L 126.663281 163.06039 
L 126.88125 157.712531 
L 127.099219 157.712531 
L 127.317187 141.470884 
L 127.535156 141.470884 
L 127.753125 102.847455 
L 127.971094 102.847455 
L 128.189062 144.045779 
L 128.407031 144.045779 
L 128.625 146.818743 
L 128.842969 146.818743 
L 129.060938 155.929911 
L 129.278906 155.929911 
L 129.496875 164.644941 
L 129.714844 164.644941 
L 129.932812 162.268114 
L 130.150781 162.268114 
L 130.36875 172.171558 
L 130.586719 172.171558 
L 130.804688 155.335704 
L 131.022656 155.335704 
L 131.240625 177.321348 
L 131.458594 177.321348 
L 131.676562 193.364926 
L 131.894531 193.364926 
L 132.1125 192.77072 
L 132.330469 192.77072 
L 132.548437 178.70783 
L 132.766406 178.70783 
L 132.984375 182.867276 
L 133.202344 182.867276 
L 133.420313 188.809342 
L 133.638281 188.809342 
L 133.85625 186.828654 
L 134.074219 186.828654 
L 134.292187 181.084657 
L 134.510156 181.084657 
L 134.728125 189.601618 
L 134.946094 189.601618 
L 135.164062 201.881887 
L 135.382031 201.881887 
L 135.6 200.297336 
L 135.817969 200.297336 
L 136.035937 199.901199 
L 136.253906 199.901199 
L 136.471875 203.070301 
L 136.689844 203.070301 
L 136.907812 202.079956 
L 137.125781 202.079956 
L 137.34375 199.505061 
L 137.561719 199.505061 
L 137.779688 196.13789 
L 137.997656 196.13789 
L 138.215625 194.355271 
L 138.433594 194.355271 
L 138.651562 181.678863 
L 138.869531 181.678863 
L 139.0875 167.814043 
L 139.305469 167.814043 
L 139.523438 173.359971 
L 139.741406 173.359971 
L 139.959375 179.698175 
L 140.177344 179.698175 
L 140.395312 163.654596 
L 140.613281 163.654596 
L 140.83125 176.92521 
L 141.049219 176.92521 
L 141.267187 189.799687 
L 141.485156 189.799687 
L 141.703125 192.572651 
L 141.921094 192.572651 
L 142.139063 183.857621 
L 142.357031 183.857621 
L 142.575 171.379282 
L 142.792969 171.379282 
L 143.010937 162.070046 
L 143.228906 162.070046 
L 143.446875 157.118324 
L 143.664844 157.118324 
L 143.882812 157.910599 
L 144.100781 157.910599 
L 144.31875 162.268114 
L 144.536719 162.268114 
L 144.754687 159.693219 
L 144.972656 159.693219 
L 145.190625 151.374327 
L 145.408594 151.374327 
L 145.626562 147.809087 
L 145.844531 147.809087 
L 146.0625 152.760809 
L 146.280469 152.760809 
L 146.498438 157.712531 
L 146.716406 157.712531 
L 146.934375 159.693219 
L 147.152344 159.693219 
L 147.370312 161.871977 
L 147.588281 161.871977 
L 147.80625 162.466183 
L 148.024219 162.466183 
L 148.242188 159.693219 
L 148.460156 159.693219 
L 148.678125 151.770465 
L 148.896094 151.770465 
L 149.114062 137.905644 
L 149.332031 137.905644 
L 149.55 146.224536 
L 149.767969 146.224536 
L 149.985937 145.63033 
L 150.203906 145.63033 
L 150.421875 169.596662 
L 150.639844 169.596662 
L 150.857813 184.253758 
L 151.075781 184.253758 
L 151.29375 194.157202 
L 151.511719 194.157202 
L 151.729687 195.939821 
L 151.947656 195.939821 
L 152.165625 195.147546 
L 152.383594 195.147546 
L 152.601562 197.128235 
L 152.819531 197.128235 
L 153.0375 184.253758 
L 153.255469 184.253758 
L 153.473437 178.311692 
L 153.691406 178.311692 
L 153.909375 166.031423 
L 154.127344 166.031423 
L 154.345312 165.833354 
L 154.563281 165.833354 
L 154.78125 167.615974 
L 154.999219 167.615974 
L 155.217188 157.514462 
L 155.435156 157.514462 
L 155.653125 169.596662 
L 155.871094 169.596662 
L 156.089062 162.070046 
L 156.307031 162.070046 
L 156.525 166.823698 
L 156.742969 166.823698 
L 156.960938 162.466183 
L 157.178906 162.466183 
L 157.396875 157.910599 
L 157.614844 157.910599 
L 157.832812 149.195569 
L 158.050781 149.195569 
L 158.26875 143.84771 
L 158.486719 143.84771 
L 158.704687 130.775165 
L 158.922656 130.775165 
L 159.140625 95.518907 
L 159.358594 95.518907 
L 159.576563 121.862066 
L 159.794531 121.862066 
L 160.0125 143.84771 
L 160.230469 143.84771 
L 160.448437 154.741498 
L 160.666406 154.741498 
L 160.884375 174.548384 
L 161.102344 174.548384 
L 161.320312 176.331004 
L 161.538281 176.331004 
L 161.75625 181.282725 
L 161.974219 181.282725 
L 162.192187 189.997756 
L 162.410156 189.997756 
L 162.628125 184.847965 
L 162.846094 184.847965 
L 163.064062 181.282725 
L 163.282031 181.282725 
L 163.5 181.876932 
L 163.717969 181.876932 
L 163.935938 166.031423 
L 164.153906 166.031423 
L 164.371875 171.379282 
L 164.589844 171.379282 
L 164.807812 157.118324 
L 165.025781 157.118324 
L 165.24375 153.949222 
L 165.461719 153.949222 
L 165.679688 153.751153 
L 165.897656 153.751153 
L 166.115625 149.393638 
L 166.333594 149.393638 
L 166.551562 161.27777 
L 166.769531 161.27777 
L 166.9875 160.287426 
L 167.205469 160.287426 
L 167.423437 154.741498 
L 167.641406 154.741498 
L 167.859375 137.113369 
L 168.077344 137.113369 
L 168.295313 139.688264 
L 168.513281 139.688264 
L 168.73125 152.56274 
L 168.949219 152.56274 
L 169.167187 146.818743 
L 169.385156 146.818743 
L 169.603125 104.630075 
L 169.821094 104.630075 
L 170.039062 98.48994 
L 170.257031 98.48994 
L 170.475 124.040823 
L 170.692969 124.040823 
L 170.910937 138.895988 
L 171.128906 138.895988 
L 171.346875 171.181213 
L 171.564844 171.181213 
L 171.782812 185.442172 
L 172.000781 185.442172 
L 172.21875 186.234447 
L 172.436719 186.234447 
L 172.654688 186.432516 
L 172.872656 186.432516 
L 173.090625 187.224791 
L 173.308594 187.224791 
L 173.526562 189.997756 
L 173.744531 189.997756 
L 173.9625 187.224791 
L 174.180469 187.224791 
L 174.398438 168.21018 
L 174.616406 168.21018 
L 174.834375 164.84301 
L 175.052344 164.84301 
L 175.270312 163.852665 
L 175.488281 163.852665 
L 175.70625 157.118324 
L 175.924219 157.118324 
L 176.142187 142.461228 
L 176.360156 142.461228 
L 176.578125 146.620674 
L 177.232031 146.620674 
L 177.45 165.833354 
L 177.667969 165.833354 
L 177.885937 150.978189 
L 178.103906 150.978189 
L 178.321875 149.987845 
L 178.539844 149.987845 
L 178.757812 140.480539 
L 178.975781 140.480539 
L 179.19375 141.074746 
L 179.411719 141.074746 
L 179.629687 128.20027 
L 179.847656 128.20027 
L 180.065625 94.330494 
L 180.283594 94.330494 
L 180.501562 115.523862 
L 180.719531 115.523862 
L 180.9375 145.036123 
L 181.155469 145.036123 
L 181.373438 153.355015 
L 181.591406 153.355015 
L 181.809375 162.268114 
L 182.027344 162.268114 
L 182.245312 170.388938 
L 182.463281 170.388938 
L 182.68125 183.857621 
L 182.899219 183.857621 
L 183.117188 190.393893 
L 183.335156 190.393893 
L 183.553125 192.176513 
L 183.771094 192.176513 
L 183.989062 192.77072 
L 184.207031 192.77072 
L 184.425 181.678863 
L 184.642969 181.678863 
L 184.860937 126.615719 
L 185.078906 126.615719 
L 185.296875 111.958623 
L 185.514844 111.958623 
L 185.732813 107.20497 
L 185.950781 107.20497 
L 186.16875 107.799177 
L 186.386719 107.799177 
L 186.604687 137.509506 
L 186.822656 137.509506 
L 187.040625 136.717231 
L 187.258594 136.717231 
L 187.476562 143.649641 
L 187.694531 143.649641 
L 187.9125 147.809087 
L 188.130469 147.809087 
L 188.348437 123.248548 
L 188.566406 123.248548 
L 188.784375 140.678608 
L 189.002344 140.678608 
L 189.220312 147.214881 
L 189.438281 147.214881 
L 189.65625 136.9153 
L 189.874219 136.9153 
L 190.092188 118.494895 
L 190.310156 118.494895 
L 190.528125 80.663742 
L 190.746094 80.663742 
L 190.964062 93.538218 
L 191.182031 93.538218 
L 191.4 128.20027 
L 191.617969 128.20027 
L 191.835938 137.509506 
L 192.053906 137.509506 
L 192.271875 169.596662 
L 192.489844 169.596662 
L 192.707812 157.514462 
L 192.925781 157.514462 
L 193.14375 175.736797 
L 193.361719 175.736797 
L 193.579687 180.886588 
L 193.797656 180.886588 
L 194.015625 184.05569 
L 194.233594 184.05569 
L 194.451563 180.094312 
L 194.669531 180.094312 
L 194.8875 131.56744 
L 195.105469 131.56744 
L 195.323437 76.702365 
L 195.541406 76.702365 
L 197.067187 114.13738 
L 197.285156 114.13738 
L 197.503125 112.156692 
L 197.721094 112.156692 
L 197.939062 98.093802 
L 198.157031 98.093802 
L 198.375 112.948967 
L 198.592969 112.948967 
L 198.810938 140.084402 
L 199.028906 140.084402 
L 199.246875 138.895988 
L 199.464844 138.895988 
L 199.682812 120.673653 
L 199.900781 120.673653 
L 200.11875 105.42235 
L 200.336719 105.42235 
L 200.554688 109.977934 
L 200.772656 109.977934 
L 200.990625 77.296571 
L 201.208594 77.296571 
L 201.426562 117.70262 
L 201.644531 117.70262 
L 201.8625 136.123024 
L 202.080469 136.123024 
L 202.298437 155.731842 
L 202.516406 155.731842 
L 202.734375 162.268114 
L 202.952344 162.268114 
L 203.170313 169.200525 
L 203.388281 169.200525 
L 203.60625 164.84301 
L 203.824219 164.84301 
L 204.042187 163.258459 
L 204.260156 163.258459 
L 204.478125 171.77542 
L 204.696094 171.77542 
L 204.914062 173.954177 
L 205.132031 173.954177 
L 205.35 174.350315 
L 205.567969 174.350315 
L 205.785937 163.258459 
L 206.003906 163.258459 
L 206.221875 155.533773 
L 206.439844 155.533773 
L 206.657812 153.949222 
L 206.875781 153.949222 
L 207.09375 165.239147 
L 207.311719 165.239147 
L 207.529688 168.21018 
L 207.747656 168.21018 
L 207.965625 167.615974 
L 208.183594 167.615974 
L 208.401562 172.963833 
L 208.619531 172.963833 
L 208.8375 172.171558 
L 209.055469 172.171558 
L 209.273438 176.529073 
L 209.491406 176.529073 
L 209.709375 170.983144 
L 209.927344 170.983144 
L 210.145312 171.973489 
L 210.363281 171.973489 
L 210.58125 164.84301 
L 210.799219 164.84301 
L 211.017187 152.56274 
L 211.235156 152.56274 
L 211.453125 133.746198 
L 211.671094 133.746198 
L 211.889063 121.06979 
L 212.107031 121.06979 
L 212.325 138.895988 
L 212.542969 138.895988 
L 212.760937 141.272815 
L 212.978906 141.272815 
L 213.196875 162.070046 
L 213.414844 162.070046 
L 213.632812 145.828399 
L 213.850781 145.828399 
L 214.06875 153.355015 
L 214.286719 153.355015 
L 214.504687 153.553084 
L 214.722656 153.553084 
L 214.940625 158.306737 
L 215.158594 158.306737 
L 215.376562 156.12798 
L 215.594531 156.12798 
L 215.8125 146.620674 
L 216.030469 146.620674 
L 216.248438 147.809087 
L 216.466406 147.809087 
L 216.684375 149.591707 
L 216.902344 149.591707 
L 217.120312 148.799432 
L 217.338281 148.799432 
L 217.55625 151.374327 
L 217.774219 151.374327 
L 217.992188 154.543429 
L 218.210156 154.543429 
L 218.428125 161.079701 
L 218.646094 161.079701 
L 218.864062 162.664252 
L 219.082031 162.664252 
L 219.3 163.654596 
L 219.517969 163.654596 
L 219.735937 173.55804 
L 219.953906 173.55804 
L 220.171875 174.746453 
L 220.389844 174.746453 
L 220.607813 177.717486 
L 220.825781 177.717486 
L 221.04375 179.103968 
L 221.261719 179.103968 
L 221.479687 176.132935 
L 221.697656 176.132935 
L 221.915625 172.171558 
L 222.569531 172.171558 
L 222.7875 164.644941 
L 223.005469 164.644941 
L 223.223437 157.118324 
L 223.441406 157.118324 
L 223.659375 150.978189 
L 223.877344 150.978189 
L 224.095312 153.553084 
L 224.313281 153.553084 
L 224.53125 154.543429 
L 224.749219 154.543429 
L 224.967188 148.007156 
L 225.185156 148.007156 
L 225.403125 148.9975 
L 225.621094 148.9975 
L 225.839062 149.393638 
L 226.057031 149.393638 
L 226.275 130.775165 
L 226.492969 130.775165 
L 226.710938 121.06979 
L 226.928906 121.06979 
L 227.146875 117.70262 
L 227.364844 117.70262 
L 227.582812 104.432006 
L 227.800781 104.432006 
L 228.01875 123.050479 
L 228.236719 123.050479 
L 228.454687 132.953922 
L 228.672656 132.953922 
L 228.890625 159.297081 
L 229.108594 159.297081 
L 229.326563 157.118324 
L 229.544531 157.118324 
L 229.7625 166.823698 
L 229.980469 166.823698 
L 230.198437 176.132935 
L 230.416406 176.132935 
L 230.634375 182.867276 
L 230.852344 182.867276 
L 231.070312 181.876932 
L 231.288281 181.876932 
L 231.50625 177.717486 
L 231.724219 177.717486 
L 231.942187 186.432516 
L 232.160156 186.432516 
L 232.378125 188.809342 
L 232.596094 188.809342 
L 232.814062 187.42286 
L 233.032031 187.42286 
L 233.25 189.799687 
L 233.467969 189.799687 
L 233.685938 182.669208 
L 233.903906 182.669208 
L 234.121875 171.973489 
L 234.339844 171.973489 
L 234.557812 161.079701 
L 234.775781 161.079701 
L 234.99375 166.625629 
L 235.211719 166.625629 
L 235.429688 164.84301 
L 235.647656 164.84301 
L 235.865625 164.446872 
L 236.083594 164.446872 
L 236.301562 164.84301 
L 236.519531 164.84301 
L 236.7375 142.857366 
L 236.955469 142.857366 
L 237.173437 141.470884 
L 237.391406 141.470884 
L 237.609375 143.451572 
L 237.827344 143.451572 
L 238.045313 151.770465 
L 238.263281 151.770465 
L 238.48125 147.41295 
L 238.699219 147.41295 
L 238.917187 155.335704 
L 239.135156 155.335704 
L 239.353125 170.388938 
L 239.571094 170.388938 
L 239.789062 169.794731 
L 240.007031 169.794731 
L 240.225 172.963833 
L 240.442969 172.963833 
L 240.660937 176.727142 
L 240.878906 176.727142 
L 241.096875 194.949477 
L 241.314844 194.949477 
L 241.532812 196.13789 
L 241.750781 196.13789 
L 241.96875 195.939821 
L 242.186719 195.939821 
L 242.404688 195.345615 
L 242.622656 195.345615 
L 242.840625 193.959133 
L 243.058594 193.959133 
L 243.276562 187.620929 
L 243.494531 187.620929 
L 243.7125 184.253758 
L 243.930469 184.253758 
L 244.148438 174.152246 
L 244.366406 174.152246 
L 244.584375 176.132935 
L 244.802344 176.132935 
L 245.020312 175.142591 
L 245.238281 175.142591 
L 245.45625 178.905899 
L 245.674219 178.905899 
L 245.892187 180.688519 
L 246.110156 180.688519 
L 246.328125 185.64024 
L 246.546094 185.64024 
L 246.764063 184.05569 
L 246.982031 184.05569 
L 247.2 159.891288 
L 247.417969 159.891288 
L 247.635937 51.547619 
L 247.853906 51.547619 
L 248.071875 74.919745 
L 248.289844 74.919745 
L 248.507812 56.301272 
L 248.725781 56.301272 
L 248.94375 26.194804 
L 249.161719 26.194804 
L 249.815625 37.286661 
L 250.033594 37.286661 
L 250.251562 75.513952 
L 250.469531 75.513952 
L 250.6875 95.122769 
L 250.905469 95.122769 
L 251.123438 123.842755 
L 251.341406 123.842755 
L 251.559375 135.330749 
L 251.777344 135.330749 
L 251.995312 138.895988 
L 252.213281 138.895988 
L 252.43125 134.934611 
L 252.649219 134.934611 
L 252.867188 120.871722 
L 253.085156 120.871722 
L 253.303125 60.856856 
L 253.521094 60.856856 
L 253.739062 92.349805 
L 253.957031 92.349805 
L 254.175 103.63973 
L 254.392969 103.63973 
L 254.610937 138.895988 
L 254.828906 138.895988 
L 255.046875 153.949222 
L 255.264844 153.949222 
L 255.482813 161.079701 
L 255.700781 161.079701 
L 255.91875 152.166602 
L 256.136719 152.166602 
L 256.354687 149.591707 
L 256.572656 149.591707 
L 256.790625 164.84301 
L 257.008594 164.84301 
L 257.226562 168.012111 
L 257.444531 168.012111 
L 257.6625 142.857366 
L 257.880469 142.857366 
L 258.098437 124.238892 
L 258.316406 124.238892 
L 258.534375 87.794221 
L 258.752344 87.794221 
L 258.970312 107.403039 
L 259.188281 107.403039 
L 259.40625 130.180958 
L 259.624219 130.180958 
L 259.842188 144.639985 
L 260.060156 144.639985 
L 260.278125 149.393638 
L 260.496094 149.393638 
L 260.714062 159.693219 
L 260.932031 159.693219 
L 261.15 164.644941 
L 261.367969 164.644941 
L 261.585938 167.021767 
L 261.803906 167.021767 
L 262.021875 164.248803 
L 262.239844 164.248803 
L 262.457812 163.456528 
L 262.675781 163.456528 
L 262.89375 167.021767 
L 263.111719 167.021767 
L 263.329687 150.185914 
L 263.547656 150.185914 
L 263.765625 149.987845 
L 263.983594 149.987845 
L 264.201563 140.678608 
L 264.419531 140.678608 
L 264.6375 143.649641 
L 264.855469 143.649641 
L 265.073437 168.804387 
L 265.291406 168.804387 
L 265.509375 170.983144 
L 265.727344 170.983144 
L 265.945312 167.417905 
L 266.163281 167.417905 
L 266.38125 164.84301 
L 266.599219 164.84301 
L 266.817187 169.596662 
L 267.035156 169.596662 
L 267.253125 180.886588 
L 267.471094 180.886588 
L 267.689062 183.263414 
L 268.342969 183.263414 
L 268.560938 177.321348 
L 268.778906 177.321348 
L 268.996875 167.021767 
L 269.214844 167.021767 
L 269.432812 168.606318 
L 269.650781 168.606318 
L 269.86875 175.736797 
L 270.086719 175.736797 
L 270.304688 179.103968 
L 270.522656 179.103968 
L 270.740625 186.828654 
L 270.958594 186.828654 
L 271.176562 191.186169 
L 271.394531 191.186169 
L 271.6125 194.355271 
L 271.830469 194.355271 
L 272.048437 196.534028 
L 272.266406 196.534028 
L 272.484375 199.306992 
L 272.702344 199.306992 
L 272.920313 199.70313 
L 273.138281 199.70313 
L 273.35625 196.13789 
L 273.574219 196.13789 
L 273.792187 194.355271 
L 274.010156 194.355271 
L 274.228125 188.413205 
L 274.446094 188.413205 
L 274.664062 184.253758 
L 274.882031 184.253758 
L 275.1 184.847965 
L 275.317969 184.847965 
L 275.535937 187.224791 
L 275.753906 187.224791 
L 275.971875 191.186169 
L 276.189844 191.186169 
L 276.407812 192.176513 
L 276.625781 192.176513 
L 276.84375 187.224791 
L 277.061719 187.224791 
L 277.279688 182.669208 
L 277.497656 182.669208 
L 277.715625 191.780375 
L 277.933594 191.780375 
L 278.151562 197.722441 
L 278.369531 197.722441 
L 278.5875 200.495405 
L 278.805469 200.495405 
L 279.023438 204.654852 
L 279.241406 204.654852 
L 279.459375 200.891543 
L 279.677344 200.891543 
L 279.895312 197.128235 
L 280.113281 197.128235 
L 280.33125 189.997756 
L 280.549219 189.997756 
L 280.767187 167.417905 
L 280.985156 167.417905 
L 281.203125 184.05569 
L 281.421094 184.05569 
L 281.639063 191.978444 
L 281.857031 191.978444 
L 282.075 197.524372 
L 282.292969 197.524372 
L 282.510937 198.514717 
L 282.728906 198.514717 
L 282.946875 199.108923 
L 283.164844 199.108923 
L 283.382812 195.939821 
L 283.600781 195.939821 
L 283.81875 194.751408 
L 284.036719 194.751408 
L 284.254687 194.949477 
L 284.472656 194.949477 
L 284.690625 193.364926 
L 284.908594 193.364926 
L 285.126562 187.42286 
L 285.344531 187.42286 
L 285.5625 170.785076 
L 285.780469 170.785076 
L 285.998438 158.900944 
L 286.216406 158.900944 
L 286.434375 172.369627 
L 286.652344 172.369627 
L 286.870312 180.688519 
L 287.088281 180.688519 
L 287.30625 182.075001 
L 287.960156 182.075001 
L 288.178125 184.451827 
L 288.396094 184.451827 
L 288.614062 190.9881 
L 288.832031 190.9881 
L 289.05 195.147546 
L 289.267969 195.147546 
L 289.485937 182.075001 
L 289.703906 182.075001 
L 289.921875 179.500106 
L 290.139844 179.500106 
L 290.357813 186.630585 
L 290.575781 186.630585 
L 290.79375 182.075001 
L 291.011719 182.075001 
L 291.229687 181.282725 
L 291.447656 181.282725 
L 291.665625 149.591707 
L 291.883594 149.591707 
L 292.101562 165.239147 
L 292.319531 165.239147 
L 292.5375 172.171558 
L 292.755469 172.171558 
L 292.973437 178.311692 
L 293.191406 178.311692 
L 293.409375 184.451827 
L 293.627344 184.451827 
L 293.845312 188.413205 
L 294.063281 188.413205 
L 294.28125 180.49045 
L 294.499219 180.49045 
L 294.717188 176.727142 
L 294.935156 176.727142 
L 295.153125 167.021767 
L 295.371094 167.021767 
L 295.589062 173.161902 
L 295.807031 173.161902 
L 296.025 176.529073 
L 296.242969 176.529073 
L 296.460938 185.64024 
L 296.678906 185.64024 
L 296.896875 189.601618 
L 297.114844 189.601618 
L 297.332812 185.046034 
L 297.550781 185.046034 
L 297.76875 180.094312 
L 297.986719 180.094312 
L 298.204687 186.630585 
L 298.422656 186.630585 
L 298.640625 181.678863 
L 298.858594 181.678863 
L 299.076563 192.176513 
L 299.294531 192.176513 
L 299.5125 181.084657 
L 299.730469 181.084657 
L 299.948437 151.176258 
L 300.166406 151.176258 
L 300.384375 151.572396 
L 300.602344 151.572396 
L 300.820312 115.92 
L 301.038281 115.92 
L 301.25625 99.282215 
L 301.474219 99.282215 
L 301.692187 105.026212 
L 301.910156 105.026212 
L 302.128125 117.70262 
L 302.346094 117.70262 
L 302.564062 125.031168 
L 302.782031 125.031168 
L 303 126.41765 
L 303.217969 126.41765 
L 303.435938 124.436961 
L 303.653906 124.436961 
L 303.871875 139.688264 
L 304.089844 139.688264 
L 304.307812 155.533773 
L 304.525781 155.533773 
L 304.74375 153.156947 
L 304.961719 153.156947 
L 305.179688 147.214881 
L 305.397656 147.214881 
L 305.615625 133.746198 
L 305.833594 133.746198 
L 306.051562 130.180958 
L 306.269531 130.180958 
L 306.4875 125.427306 
L 306.705469 125.427306 
L 306.923437 154.543429 
L 307.141406 154.543429 
L 307.359375 176.331004 
L 307.577344 176.331004 
L 307.795313 175.736797 
L 308.013281 175.736797 
L 308.23125 177.519417 
L 308.449219 177.519417 
L 308.667187 181.282725 
L 308.885156 181.282725 
L 309.103125 185.244103 
L 309.321094 185.244103 
L 309.539062 179.698175 
L 309.757031 179.698175 
L 309.975 170.190869 
L 310.192969 170.190869 
L 310.410937 166.823698 
L 310.628906 166.823698 
L 310.846875 135.726887 
L 311.064844 135.726887 
L 311.282812 24.016047 
L 311.500781 24.016047 
L 311.71875 44.41714 
L 311.936719 44.41714 
L 312.154688 53.13217 
L 312.372656 53.13217 
L 312.590625 75.71202 
L 312.808594 75.71202 
L 313.026562 93.340149 
L 313.244531 93.340149 
L 313.4625 112.948967 
L 313.680469 112.948967 
L 313.898438 114.335449 
L 314.116406 114.335449 
L 314.334375 123.050479 
L 314.552344 123.050479 
L 314.770312 127.209925 
L 314.988281 127.209925 
L 315.20625 130.180958 
L 315.424219 130.180958 
L 315.642187 117.108413 
L 315.860156 117.108413 
L 316.078125 93.538218 
L 316.296094 93.538218 
L 316.514063 90.765254 
L 317.167969 90.765254 
L 317.385937 108.591452 
L 317.603906 108.591452 
L 317.821875 164.248803 
L 318.039844 164.248803 
L 318.257812 167.814043 
L 318.475781 167.814043 
L 318.69375 167.417905 
L 318.911719 167.417905 
L 319.129687 166.823698 
L 319.347656 166.823698 
L 319.565625 176.529073 
L 319.783594 176.529073 
L 320.001562 182.867276 
L 320.219531 182.867276 
L 320.4375 152.56274 
L 320.655469 152.56274 
L 320.873438 134.736542 
L 321.091406 134.736542 
L 321.309375 127.209925 
L 321.527344 127.209925 
L 321.745312 112.156692 
L 321.963281 112.156692 
L 322.18125 65.808577 
L 322.399219 65.808577 
L 322.617188 61.649131 
L 322.835156 61.649131 
L 323.053125 80.069535 
L 323.271094 80.069535 
L 323.489062 66.798921 
L 323.707031 66.798921 
L 323.925 115.92 
L 324.142969 115.92 
L 324.360937 114.335449 
L 324.578906 114.335449 
L 324.796875 122.060135 
L 325.014844 122.060135 
L 325.232813 129.388683 
L 325.886719 129.388683 
L 326.104687 115.325793 
L 326.322656 115.325793 
L 326.540625 121.465928 
L 326.758594 121.465928 
L 326.976562 76.306227 
L 327.194531 76.306227 
L 327.4125 59.668442 
L 327.630469 59.668442 
L 327.848437 106.412694 
L 328.066406 106.412694 
L 328.284375 151.374327 
L 328.502344 151.374327 
L 328.720312 149.195569 
L 328.938281 149.195569 
L 329.15625 156.920255 
L 329.374219 156.920255 
L 329.592188 148.007156 
L 329.810156 148.007156 
L 330.028125 154.741498 
L 330.137109 154.741498 
L 330.464062 141.470884 
L 330.682031 141.470884 
L 330.9 122.85241 
L 331.117969 122.85241 
L 331.771875 25.600598 
L 331.989844 25.600598 
L 332.64375 90.963323 
L 332.861719 90.963323 
L 333.079687 81.654086 
L 333.297656 81.654086 
L 333.515625 97.895733 
L 333.733594 97.895733 
L 333.951563 136.717231 
L 334.169531 136.717231 
L 334.3875 147.41295 
L 334.605469 147.41295 
L 334.823437 152.56274 
L 335.041406 152.56274 
L 335.259375 149.393638 
L 335.477344 149.393638 
L 335.695312 136.321093 
L 335.913281 136.321093 
L 336.13125 139.688264 
L 336.349219 139.688264 
L 336.567187 121.465928 
L 336.785156 121.465928 
L 337.003125 82.248293 
L 337.221094 82.248293 
L 337.439062 74.325538 
L 337.657031 74.325538 
L 337.875 121.06979 
L 338.092969 121.06979 
L 338.310938 142.263159 
L 338.528906 142.263159 
L 338.746875 128.398338 
L 338.964844 128.398338 
L 339.182812 142.659297 
L 339.400781 142.659297 
L 339.61875 167.417905 
L 339.836719 167.417905 
L 340.054688 166.031423 
L 340.272656 166.031423 
L 340.490625 158.900944 
L 340.708594 158.900944 
L 340.926562 148.9975 
L 341.144531 148.9975 
L 341.3625 123.644686 
L 341.580469 123.644686 
L 341.798437 124.040823 
L 342.016406 124.040823 
L 342.234375 97.499596 
L 342.452344 97.499596 
L 342.779297 114.533518 
L 342.888281 114.533518 
L 343.10625 114.929656 
L 343.324219 114.929656 
L 343.542187 108.789521 
L 343.760156 108.789521 
L 343.978125 122.258204 
L 344.196094 122.258204 
L 344.414062 135.13268 
L 344.632031 135.13268 
L 344.85 140.678608 
L 345.067969 140.678608 
L 345.285937 156.722186 
L 345.503906 156.722186 
L 345.721875 163.06039 
L 345.939844 163.06039 
L 346.157812 162.268114 
L 346.375781 162.268114 
L 346.59375 148.403294 
L 346.811719 148.403294 
L 347.029688 159.297081 
L 347.247656 159.297081 
L 347.465625 165.833354 
L 347.683594 165.833354 
L 347.901562 169.9928 
L 348.119531 169.9928 
L 348.3375 172.567695 
L 348.555469 172.567695 
L 348.773438 174.152246 
L 348.991406 174.152246 
L 349.209375 173.954177 
L 349.427344 173.954177 
L 349.645312 174.350315 
L 349.863281 174.350315 
L 350.08125 177.321348 
L 350.299219 177.321348 
L 350.517187 170.388938 
L 350.735156 170.388938 
L 350.953125 178.509761 
L 351.171094 178.509761 
L 351.389063 172.567695 
L 351.607031 172.567695 
L 351.825 178.311692 
L 352.042969 178.311692 
L 352.260937 172.369627 
L 352.478906 172.369627 
L 352.696875 177.519417 
L 352.914844 177.519417 
L 353.132812 182.669208 
L 353.350781 182.669208 
L 353.56875 181.282725 
L 353.786719 181.282725 
L 354.004687 183.065345 
L 354.222656 183.065345 
L 354.440625 185.442172 
L 354.658594 185.442172 
L 354.876562 190.393893 
L 355.094531 190.393893 
L 355.3125 193.761064 
L 355.530469 193.761064 
L 355.748438 196.13789 
L 355.966406 196.13789 
L 356.184375 195.939821 
L 356.402344 195.939821 
L 356.620312 179.698175 
L 356.838281 179.698175 
L 357.05625 188.413205 
L 357.274219 188.413205 
L 357.492188 167.814043 
L 357.710156 167.814043 
L 357.928125 118.098758 
L 358.146094 118.098758 
L 358.364062 133.944267 
L 358.473047 133.944267 
L 358.8 164.84301 
L 359.017969 164.84301 
L 359.235937 173.359971 
L 359.453906 173.359971 
L 359.671875 165.833354 
L 359.889844 165.833354 
L 360.107813 147.214881 
L 360.325781 147.214881 
L 360.54375 164.446872 
L 360.761719 164.446872 
L 360.979687 164.248803 
L 361.197656 164.248803 
L 361.415625 164.446872 
L 361.633594 164.446872 
L 361.851562 171.379282 
L 362.069531 171.379282 
L 362.2875 171.973489 
L 362.505469 171.973489 
L 362.723437 170.983144 
L 362.941406 170.983144 
L 363.159375 166.625629 
L 363.377344 166.625629 
L 363.595312 177.519417 
L 363.813281 177.519417 
L 364.03125 171.77542 
L 364.249219 171.77542 
L 364.467188 163.456528 
L 364.685156 163.456528 
L 364.903125 157.712531 
L 365.012109 157.712531 
L 365.012109 157.712531 
" style="fill:none;stroke:#1f77b4;stroke-linecap:square;stroke-width:1.5;"/>
   </g>
   <g id="patch_3">
    <path d="M 30.103125 224.64 
L 30.103125 7.2 
" style="fill:none;stroke:#000000;stroke-linecap:square;stroke-linejoin:miter;stroke-width:0.8;"/>
   </g>
   <g id="patch_4">
    <path d="M 364.903125 224.64 
L 364.903125 7.2 
" style="fill:none;stroke:#000000;stroke-linecap:square;stroke-linejoin:miter;stroke-width:0.8;"/>
   </g>
   <g id="patch_5">
    <path d="M 30.103125 224.64 
L 364.903125 224.64 
" style="fill:none;stroke:#000000;stroke-linecap:square;stroke-linejoin:miter;stroke-width:0.8;"/>
   </g>
   <g id="patch_6">
    <path d="M 30.103125 7.2 
L 364.903125 7.2 
" style="fill:none;stroke:#000000;stroke-linecap:square;stroke-linejoin:miter;stroke-width:0.8;"/>
   </g>
   <g id="legend_1">
    <g id="patch_7">
     <path d="M 37.103125 219.64 
L 96.485938 219.64 
Q 98.485938 219.64 98.485938 217.64 
L 98.485938 203.961875 
Q 98.485938 201.961875 96.485938 201.961875 
L 37.103125 201.961875 
Q 35.103125 201.961875 35.103125 203.961875 
L 35.103125 217.64 
Q 35.103125 219.64 37.103125 219.64 
z
" style="fill:#ffffff;opacity:0.8;stroke:#cccccc;stroke-linejoin:miter;"/>
    </g>
    <g id="line2d_41">
     <path d="M 39.103125 210.060312 
L 59.103125 210.060312 
" style="fill:none;stroke:#1f77b4;stroke-linecap:square;stroke-width:1.5;"/>
    </g>
    <g id="line2d_42"/>
    <g id="text_13">
     <!-- PM10 -->
     <g transform="translate(67.103125 213.560312)scale(0.1 -0.1)">
      <defs>
       <path d="M 1259 4147 
L 1259 2394 
L 2053 2394 
Q 2494 2394 2734 2622 
Q 2975 2850 2975 3272 
Q 2975 3691 2734 3919 
Q 2494 4147 2053 4147 
L 1259 4147 
z
M 628 4666 
L 2053 4666 
Q 2838 4666 3239 4311 
Q 3641 3956 3641 3272 
Q 3641 2581 3239 2228 
Q 2838 1875 2053 1875 
L 1259 1875 
L 1259 0 
L 628 0 
L 628 4666 
z
" id="DejaVuSans-50" transform="scale(0.015625)"/>
       <path d="M 628 4666 
L 1569 4666 
L 2759 1491 
L 3956 4666 
L 4897 4666 
L 4897 0 
L 4281 0 
L 4281 4097 
L 3078 897 
L 2444 897 
L 1241 4097 
L 1241 0 
L 628 0 
L 628 4666 
z
" id="DejaVuSans-4d" transform="scale(0.015625)"/>
      </defs>
      <use xlink:href="#DejaVuSans-50"/>
      <use x="60.302734" xlink:href="#DejaVuSans-4d"/>
      <use x="146.582031" xlink:href="#DejaVuSans-31"/>
      <use x="210.205078" xlink:href="#DejaVuSans-30"/>
     </g>
    </g>
   </g>
  </g>
 </g>
 <defs>
  <clipPath id="pee4983612f">
   <rect height="217.44" width="334.8" x="30.103125" y="7.2"/>
  </clipPath>
 </defs>
</svg>
